<?xml version="1.0" encoding="UTF-8"?>
<svg xmlns="http://www.w3.org/2000/svg" xmlns:xlink="http://www.w3.org/1999/xlink" id="Layer_1" data-name="Layer 1" viewBox="0 0 350.05 148.17">
  <defs>
    <style> .cls-1 { fill: url(#linear-gradient); } .cls-2 { fill: #909090; } .cls-3 { fill: #29487c; } .cls-4 { fill: #2f3248; } .cls-5 { fill: url(#linear-gradient-2); } </style>
    <linearGradient id="linear-gradient" x1="180.44" y1="-65.7" x2="246.08" y2="7.69" gradientTransform="translate(243.13 70.71) rotate(-180)" gradientUnits="userSpaceOnUse">
      <stop offset="0" stop-color="#0c8bcb"></stop>
      <stop offset="1" stop-color="#0968af"></stop>
    </linearGradient>
    <linearGradient id="linear-gradient-2" x1="17.53" y1="11.76" x2="83.17" y2="85.15" gradientUnits="userSpaceOnUse">
      <stop offset="0" stop-color="#0c8bcb"></stop>
      <stop offset=".09" stop-color="#1991ce"></stop>
      <stop offset=".72" stop-color="#7cbde6"></stop>
      <stop offset="1" stop-color="#a3cff0"></stop>
    </linearGradient>
  </defs>
  <g>
    <g>
      <path class="cls-2" d="m135.64,136.6v-49.92l33.93,35.54v-32.39h7.15v49.63l-33.93-35.54v32.67h-7.15Z"></path>
      <path class="cls-2" d="m231.31,89.84c5.68,0,9.32.7,12.34,2.73,5.12,3.44,5.54,8.97,5.54,11.01,0,6.73-4.13,11.64-10.37,13.04l14.58,19.98h-8.62l-13.39-19.14h-1.26v19.14h-7.15v-46.76h8.34Zm-1.19,21.45h2.24c1.97,0,9.95-.21,9.95-7.64,0-6.59-6.24-7.22-9.74-7.22h-2.46v14.86Z"></path>
      <path class="cls-2" d="m284.57,112.28h19.28v.35c0,7.99-2.38,14.51-6.94,18.93-4.84,4.7-10.59,5.96-15.91,5.96-6.8,0-11.64-1.97-15.91-6.38-4.56-4.7-6.94-10.94-6.94-17.67,0-7.29,2.95-13.6,6.8-17.46,4-4.07,10.37-7.01,17.59-7.01,4.21,0,8.56.91,12.2,2.94,3.86,2.17,6.24,4.91,7.57,7.01l-5.68,4c-1.4-1.96-3.5-4.06-5.75-5.33-2.6-1.54-5.4-2.03-8.27-2.03-6.1,0-10.03,2.52-12.34,4.84-3.08,3.09-4.98,8.06-4.98,13.11,0,4.7,1.75,9.4,4.84,12.69,3.22,3.44,7.22,4.7,11.71,4.7,4.06,0,7.43-1.19,10.44-4.14,2.59-2.52,3.65-5.26,3.93-7.92h-11.64v-6.59Z"></path>
      <path class="cls-2" d="m322.55,116.41l-15.35-26.57h8.13l10.79,18.72,10.8-18.72h8.13l-15.35,26.57v20.19h-7.15v-20.19Z"></path>
    </g>
    <g>
      <rect class="cls-2" x="99.89" y="108.42" width="25.67" height="6.73"></rect>
      <rect class="cls-2" x="99.89" y="89.84" width="26.51" height="6.73"></rect>
      <rect class="cls-2" x="99.89" y="129.87" width="26.51" height="6.73"></rect>
    </g>
    <g>
      <rect class="cls-2" x="188.24" y="108.42" width="25.67" height="6.73"></rect>
      <rect class="cls-2" x="188.24" y="89.84" width="26.51" height="6.73"></rect>
      <rect class="cls-2" x="188.24" y="129.87" width="26.51" height="6.73"></rect>
    </g>
  </g>
  <g>
    <g id="Page-1">
      <g id="Ossogas">
        <g id="Group-15">
          <g id="Group-14">
            <g id="logo">
              <g>
                <path class="cls-2" d="m251.3,13.78c7.06.25,13.68,1.91,19.97,5.04,2.24,1.11,3.09,2.24,1.67,4.62-1.09,1.81-1.91,3.8-2.7,5.77-.65,1.63-1.19,2.1-3.02,1.07-5.16-2.92-10.67-4.95-16.7-5.17-1.94-.07-3.86.1-5.69.82-4.65,1.83-5.48,7.02-1.58,10.17,3.33,2.69,7.44,3.63,11.41,4.85,3.3,1.01,6.57,2.1,9.72,3.51,6.52,2.92,10.33,7.83,10.46,15.03.13,7.04-2.87,12.64-9.19,15.97-10.17,5.37-20.56,4.46-30.9.41-3.41-1.34-6.54-3.22-9.49-5.42-1.39-1.04-1.81-1.89-.92-3.49,1.23-2.21,2.29-4.52,3.32-6.83.64-1.42,1.2-1.49,2.41-.47,4.58,3.84,9.77,6.57,15.67,7.74,3.81.75,7.65.9,11.37-.67,2.49-1.04,4.02-2.88,4.25-5.47.24-2.61-1.07-4.69-3.27-6.11-3.47-2.24-7.5-3.03-11.33-4.34-3.07-1.05-6.2-1.96-9.17-3.25-6.51-2.84-10.28-7.61-10.3-15.03-.02-7.55,3.56-12.68,10.16-15.9,4.37-2.13,9.1-2.72,13.85-2.85Z"></path>
                <path class="cls-2" d="m194.31,13.77c7.33.25,14.21,2.04,20.71,5.46,1.93,1.01,2.08,1.97,1.11,3.75-1.35,2.48-1.81,6.15-3.83,7.38-2.2,1.34-4.84-1.84-7.44-2.73-4.55-1.56-9.09-2.92-13.97-2.43-4.98.51-7.44,3.07-6.94,7.02.27,2.12,1.62,3.41,3.22,4.56,2.61,1.87,5.7,2.61,8.68,3.58,3.85,1.26,7.79,2.3,11.47,4.03,6.25,2.94,10.16,7.46,10.42,14.73.28,7.76-3.12,13.38-9.86,16.76-12.83,6.44-29.47,2.75-40.3-5.99-1.03-.83-.92-1.59-.39-2.61,1.17-2.24,2.39-4.48,3.35-6.81.82-2.01,1.52-1.7,2.97-.53,6.52,5.23,13.81,8.46,22.42,7.85,4.41-.31,7.77-2.68,8.3-5.87.57-3.46-1.23-6.42-5.49-8.07-4.34-1.68-8.86-2.92-13.27-4.42-3.27-1.11-6.56-2.21-9.27-4.46-8.58-7.12-7.9-20.3,1.35-26.65,5.07-3.48,10.81-4.38,16.77-4.57Z"></path>
                <path class="cls-2" d="m316.13,14.15c-.61,0-1.22-.03-1.83,0-12.37.64-22.17,5.87-28.13,16.83-5.99,11.01-5.49,22.23,1.02,32.93,7.32,12.03,22.95,17.96,37.22,14.43,14.96-3.7,25.33-16.02,25.63-30.46.4-19.54-13.88-33.74-33.92-33.74Zm.33,54.04c-11.97.05-21.52-9.59-21.52-21.72,0-12.08,9.34-21.4,21.4-21.37,11.88.04,20.97,9.33,20.97,21.41,0,12-9.26,21.63-20.85,21.67Z"></path>
              </g>
            </g>
          </g>
        </g>
      </g>
    </g>
    <path class="cls-2" d="m128.95,14.15c-19.67-.01-34.06,13.65-34.06,32.33,0,18.57,14.68,32.8,33.83,32.81,19.13,0,33.95-14.27,33.98-32.73.04-18.44-14.5-32.39-33.76-32.41Zm-.12,54.11c-11.59-.07-21.45-10.04-21.47-21.73-.02-11.84,9.61-21.42,21.54-21.42,11.89,0,21.05,9.29,21.07,21.36.02,12.11-9.44,21.87-21.14,21.8Z"></path>
  </g>
  <g>
    <path class="cls-3" d="m9.49,50.38c6.31-3.64,21.59-.05,26.56,1.72,2.71.97,34.75,37.23,34.75,37.23v8.69s-8.01-7.2-17.04-12.91-16.44-6.58-17.23-6.24c-1.72.76-3.28,3.41-2.97,3.47l-13.65-6.67s-11.03-24.96-10.43-25.3Z"></path>
    <path class="cls-1" d="m47.02,146.63L6.41,99.54S-.63,88.75.05,77.28c.68-11.47,1.92-17.67,7.65-25.1,1.85-2.4,1.72-2.5,4.3-.21.15.14,38.37,45.16,38.37,45.16,0,0,4.97,5.8,7.05,15.75,2.88,13.75-.54,22.38-3.79,29.23s-3.75,7.16-6.61,4.53Z"></path>
    <path class="cls-4" d="m66.6,94.62c.49.15-44.69-45.56-42.95-45.34,6.21.81,9.44,1.79,9.44,1.79l34,38.73-.49,4.82Z"></path>
    <path class="cls-5" d="m33.21,1.53l40.61,47.09s7.04,10.79,6.36,22.26-1.92,17.67-7.65,25.1c-1.85,2.4-1.72,2.5-4.3.21-.15-.14-38.37-45.16-38.37-45.16,0,0-4.97-5.8-7.05-15.75-2.88-13.75.54-22.38,3.79-29.23s3.75-7.16,6.61-4.53Z"></path>
  </g>
</svg>
